<svg width="120" height="126" viewBox="0 0 120 126" fill="none" xmlns="http://www.w3.org/2000/svg">
<path fill-rule="evenodd" clip-rule="evenodd" d="M44.7127 0H77.093C84.5054 0 87.1933 0.77073 89.9025 2.2185C92.6117 3.66753 94.7396 5.79234 96.1886 8.49927C97.6375 11.2062 98.4089 13.8919 98.4089 21.2981V53.6513C98.4089 61.0576 97.6375 63.742 96.1886 66.4502C94.7396 69.1571 92.6117 71.2819 89.9025 72.7309C87.1933 74.1787 84.5054 74.9494 77.093 74.9494H44.7127C37.3002 74.9494 34.6123 74.1787 31.9031 72.7309C29.1939 71.2819 27.0673 69.1571 25.6183 66.4502C24.1681 63.742 23.3967 61.0576 23.3967 53.6513V21.2981C23.3967 13.8919 24.1681 11.2062 25.6183 8.49927C27.0673 5.79234 29.1939 3.66753 31.9031 2.2185C34.6123 0.77073 37.3002 0 44.7127 0Z" fill="url(#paint0_linear_1_357)"/>
<path opacity="0.9" fill-rule="evenodd" clip-rule="evenodd" d="M51.9869 19.9863V20.3923L51.5706 20.807C49.5152 22.9056 47.935 25.3877 46.8285 28.2545C45.6484 31.3124 45.0583 34.4641 45.0583 37.7094C45.0583 40.871 45.6171 43.9227 46.736 46.8669C47.855 49.81 49.4515 52.3632 51.5256 54.5255V54.9627H47.1824L46.8148 54.5892C44.9995 52.6943 43.5768 50.3209 42.5479 47.4753C41.4489 44.4373 40.9001 41.182 40.9001 37.7094C40.9001 34.1518 41.4752 30.8078 42.6241 27.6774C43.7743 24.547 45.4483 21.9837 47.6449 19.9863H51.9869ZM74.1617 19.9863L74.5681 20.3673C76.5659 22.306 78.1036 24.7431 79.1813 27.6774C80.3315 30.8078 80.9066 34.1518 80.9066 37.7094C80.9066 41.182 80.3565 44.4373 79.2588 47.4753C78.1599 50.512 76.6146 53.0078 74.6231 54.9627H70.2811V54.5255L70.6887 54.0883C72.5652 52.021 74.0255 49.6138 75.0694 46.8669C76.1896 43.9227 76.7484 40.871 76.7484 37.7094C76.7484 34.4641 76.1583 31.3124 74.9781 28.2545C73.7967 25.1966 72.0777 22.5758 69.8198 20.3923V19.9863H74.1617ZM56.2988 27.0378V35.9918H65.5066V27.0378H69.8198V48.8156H65.5066V39.5494H56.2988V48.8156H51.9869V27.0378H56.2988Z" fill="white"/>
<path fill-rule="evenodd" clip-rule="evenodd" d="M62.4331 99.9607C63.9191 99.9607 65.2627 100.328 66.4672 101.062C67.6705 101.797 68.6238 102.842 69.3248 104.196C70.0257 105.549 70.3756 107.118 70.3756 108.903C70.3756 110.686 70.0257 112.266 69.3248 113.641C68.6238 115.017 67.6705 116.082 66.4672 116.838C65.2627 117.593 63.9191 117.971 62.4331 117.971C61.1557 117.971 60.0308 117.709 59.0574 117.183C58.1938 116.718 57.4727 116.143 56.8962 115.461L56.6876 115.2V126H52.2925V100.244H56.6876V102.763L56.8839 102.502C57.429 101.819 58.1433 101.239 59.0271 100.763C60.0219 100.228 61.1557 99.9607 62.4331 99.9607ZM83.7182 99.9607C85.2042 99.9607 86.5489 100.328 87.7522 101.062C88.9556 101.797 89.9078 102.842 90.6087 104.196C91.3096 105.549 91.6607 107.118 91.6607 108.903C91.6607 110.686 91.3096 112.266 90.6087 113.641C89.9078 115.017 88.9556 116.082 87.7522 116.838C86.5489 117.593 85.2042 117.971 83.7182 117.971C82.4419 117.971 81.317 117.709 80.3436 117.183C79.4778 116.718 78.7577 116.143 78.1824 115.461L77.9727 115.2V126H73.5786V100.244H77.9727V102.763L78.169 102.502C78.714 101.819 79.4273 101.239 80.311 100.763C81.3058 100.228 82.4419 99.9607 83.7182 99.9607ZM106.282 100.244L110.771 112.429L115.322 100.244H120L109.232 125.938H104.555L108.322 117.247L101.353 100.244H106.282ZM32.7614 88.5938V89.0029L32.3364 89.4212C30.2425 91.5398 28.6309 94.0449 27.5027 96.9376C26.2993 100.023 25.6971 103.204 25.6971 106.478C25.6971 109.669 26.2679 112.75 27.4096 115.72C28.5491 118.69 30.1764 121.266 32.2904 123.45V123.891H27.8638L27.5094 123.536C25.65 121.619 24.192 119.218 23.1389 116.333C22.0196 113.269 21.46 109.983 21.46 106.478C21.46 102.889 22.0454 99.5141 23.2174 96.355C24.3894 93.1959 26.0952 90.6092 28.3348 88.5938H32.7614ZM93.2039 88.5938L93.593 88.9553C95.6409 90.9152 97.2177 93.3817 98.3213 96.355C99.4933 99.5141 100.079 102.889 100.079 106.478C100.079 109.983 99.5179 113.269 98.3987 116.333C97.2794 119.398 95.7048 121.918 93.6738 123.891H89.2472V123.45L89.6386 123.036C91.5642 120.942 93.0603 118.504 94.1302 115.72C95.2697 112.75 95.8405 109.669 95.8405 106.478C95.8405 103.204 95.2394 100.023 94.036 96.9376C92.8315 93.8522 91.0797 91.2077 88.7762 89.0029V88.5938H93.2039ZM37.8205 99.9607C39.1181 99.9607 40.2531 100.223 41.2266 100.747C42.0912 101.214 42.8034 101.788 43.363 102.47L43.5649 102.731V100.244H47.9915V117.688H43.5649V115.137L43.3686 115.405C42.8247 116.104 42.1103 116.692 41.2266 117.168C40.2318 117.704 39.0867 117.971 37.788 117.971C36.3245 117.971 34.9887 117.593 33.7865 116.838C32.5831 116.082 31.6298 115.017 30.9289 113.641C30.2279 112.266 29.878 110.686 29.878 108.903C29.878 107.139 30.2279 105.576 30.9289 104.211C31.6298 102.847 32.5831 101.797 33.7865 101.062C34.9887 100.328 36.3345 99.9607 37.8205 99.9607ZM4.39518 95.71V104.746H13.7811V95.71H18.1762V117.688H13.7811V108.336H4.39518V117.688H0V95.71H4.39518ZM38.951 103.834C38.1346 103.834 37.3809 104.032 36.6901 104.431C35.9992 104.83 35.4396 105.413 35.01 106.179C34.5816 106.945 34.3674 107.852 34.3674 108.903C34.3674 109.953 34.5816 110.871 35.01 111.658C35.4396 112.445 36.0048 113.048 36.7058 113.469C37.4067 113.888 38.1559 114.098 38.951 114.098C39.7664 114.098 40.5312 113.894 41.2411 113.484C41.9533 113.074 42.5185 112.487 42.9369 111.721C43.3552 110.955 43.5649 110.037 43.5649 108.965C43.5649 107.895 43.3552 106.976 42.9369 106.211C42.5185 105.445 41.9533 104.856 41.2411 104.447C40.5312 104.038 39.7664 103.834 38.951 103.834ZM61.2712 103.834C60.4761 103.834 59.728 104.038 59.0271 104.447C58.3262 104.856 57.7609 105.449 57.3314 106.227C56.9018 107.003 56.6876 107.916 56.6876 108.965C56.6876 110.016 56.9018 110.929 57.3314 111.705C57.7609 112.482 58.3262 113.074 59.0271 113.484C59.728 113.894 60.4761 114.098 61.2712 114.098C62.0877 114.098 62.8458 113.888 63.5468 113.469C64.2488 113.048 64.8141 112.45 65.2425 111.673C65.672 110.897 65.8862 109.973 65.8862 108.903C65.8862 107.852 65.672 106.945 65.2425 106.179C64.8141 105.413 64.2488 104.83 63.5468 104.431C62.8458 104.032 62.0877 103.834 61.2712 103.834ZM82.5563 103.834C81.7611 103.834 81.012 104.038 80.311 104.447C79.6101 104.856 79.046 105.449 78.6164 106.227C78.188 107.003 77.9727 107.916 77.9727 108.965C77.9727 110.016 78.188 110.929 78.6164 111.705C79.046 112.482 79.6101 113.074 80.311 113.484C81.012 113.894 81.7611 114.098 82.5563 114.098C83.3727 114.098 84.132 113.888 84.8329 113.469C85.5339 113.048 86.0991 112.45 86.5275 111.673C86.9571 110.897 87.1724 109.973 87.1724 108.903C87.1724 107.852 86.9571 106.945 86.5275 106.179C86.0991 105.413 85.5339 104.83 84.8329 104.431C84.132 104.032 83.3727 103.834 82.5563 103.834Z" fill="#222222"/>
<defs>
<linearGradient id="paint0_linear_1_357" x1="21.4408" y1="-2.70122" x2="98.3458" y2="72.7398" gradientUnits="userSpaceOnUse">
<stop stop-color="#D140F8"/>
<stop offset="0.365081" stop-color="#788CE9"/>
<stop offset="0.683665" stop-color="#37C2DE"/>
<stop offset="1" stop-color="#1ECCAE"/>
</linearGradient>
</defs>
</svg>
