<svg width="24" height="24" viewBox="0 0 24 24" fill="none" xmlns="http://www.w3.org/2000/svg">
<path d="M12.0204 5.43641C8.44348 5.42817 5.54687 8.31015 5.54137 11.8775C5.53589 15.4449 8.41605 18.3517 11.96 18.3627C15.5451 18.3709 18.4445 15.4862 18.45 11.905C18.45 8.33492 15.578 5.44193 12.0204 5.43641ZM5.59898 15.5715C5.34663 15.1531 4.81997 15.01 4.37286 15.2412C4.24668 15.3073 4.12599 15.3816 4.00255 15.4532C3.3168 15.8495 2.62831 16.2404 1.94804 16.645C1.55853 16.8763 1.40492 17.3002 1.5311 17.7158C1.65179 18.1094 2.00839 18.3709 2.44727 18.3682C2.5707 18.3792 2.7106 18.3434 2.83677 18.2718C3.66791 17.7956 4.50452 17.3277 5.32468 16.8295C5.75808 16.5652 5.86231 16.0064 5.59898 15.5715ZM18.3101 8.02387C18.4253 8.39823 18.7929 8.67349 19.1851 8.67624C19.3305 8.68175 19.4731 8.65147 19.5966 8.58265C20.4359 8.1037 21.278 7.63025 22.1037 7.13478C22.5233 6.88154 22.6358 6.33928 22.3999 5.91813C22.1613 5.49423 21.6456 5.29604 21.2149 5.53001C20.3454 6.00346 19.4923 6.50168 18.6447 7.01092C18.3128 7.21461 18.1949 7.64677 18.3101 8.02387ZM12.1932 4.6189C12.7089 4.61615 13.1093 4.20601 13.1121 3.6665C13.1148 3.21507 13.1121 2.76089 13.1121 2.30946V0.927656C13.1011 0.404661 12.7034 0.00278038 12.1959 1.38189e-05C11.6775 -0.00272483 11.266 0.401908 11.2633 0.935914C11.2578 1.84978 11.2578 2.76364 11.2633 3.67751C11.266 4.20876 11.6775 4.6189 12.1932 4.6189ZM12.1959 19.3784C11.6775 19.3756 11.266 19.7803 11.2633 20.3143C11.2578 21.2281 11.2578 22.142 11.2633 23.0559C11.266 23.5899 11.6747 24 12.1904 24C12.7061 23.9972 13.1066 23.5871 13.1093 23.0476C13.1121 22.5962 13.1093 22.142 13.1093 21.6878V20.306C13.1011 19.7858 12.7034 19.3811 12.1959 19.3784ZM3.67888 12.8299C4.20005 12.8272 4.5923 12.4556 4.61424 11.9491C4.63619 11.4399 4.2604 10.9967 3.73648 10.9857C2.78466 10.9664 1.83283 10.9664 0.883752 10.9857C0.373552 10.9967 -0.0159552 11.4426 0.000502815 11.9271C0.0114749 12.4391 0.420183 12.8272 0.944098 12.8299C1.40492 12.8327 1.86301 12.8299 2.32383 12.8299C2.77643 12.8299 3.22628 12.8327 3.67888 12.8299ZM23.1186 10.9857C22.1668 10.9664 21.2149 10.9664 20.2659 10.9857C19.7557 10.9967 19.3661 11.4426 19.3826 11.9271C19.3963 12.4363 19.805 12.8272 20.3289 12.8299C20.7898 12.8327 21.2478 12.8299 21.7087 12.8299C22.1613 12.8299 22.6111 12.8327 23.0637 12.8299C23.5849 12.8272 23.9771 12.4556 23.9991 11.9491C24.021 11.4399 23.6452 10.9967 23.1186 10.9857ZM16.2501 5.81628C16.5738 5.81078 16.8481 5.68966 17.0126 5.41165C17.5064 4.58036 17.9974 3.74357 18.4637 2.89852C18.6996 2.47187 18.5213 1.94061 18.1044 1.69839C17.6847 1.4534 17.1388 1.54974 16.8865 1.96539C16.379 2.79943 15.8853 3.64173 15.4244 4.50054C15.1035 5.10061 15.5726 5.81353 16.2501 5.81628ZM22.0488 16.645C21.2588 16.1798 20.4633 15.7174 19.6651 15.2687C19.1906 15.0017 18.6475 15.1531 18.3896 15.6018C18.1236 16.0642 18.2772 16.5982 18.7709 16.8845C19.5362 17.3304 20.3043 17.7736 21.0723 18.214C21.2314 18.3049 21.3987 18.3792 21.577 18.3654C21.9994 18.3654 22.3643 18.0929 22.4767 17.7075C22.5974 17.2947 22.4383 16.8763 22.0488 16.645ZM7.04181 5.16667C7.2201 5.46946 7.48892 5.62911 7.84551 5.62639C8.55595 5.6236 8.99483 4.88866 8.64647 4.25556C8.19661 3.44354 7.7303 2.63978 7.25576 1.84427C6.98146 1.38459 6.44109 1.25522 5.99672 1.51396C5.5551 1.77546 5.40149 2.31222 5.66207 2.77741C6.11467 3.57842 6.57824 4.37392 7.04181 5.16667ZM1.9645 7.20084C2.749 7.66053 3.53898 8.11196 4.32623 8.56889C4.47435 8.65422 4.6307 8.69826 4.75139 8.69276C5.21496 8.69001 5.57704 8.42025 5.6895 8.03213C5.80471 7.62475 5.65384 7.2036 5.27805 6.98339C4.48258 6.51269 3.68162 6.0475 2.87518 5.59332C2.40338 5.32632 1.85203 5.48322 1.59968 5.93189C1.33909 6.39433 1.48447 6.92008 1.9645 7.20084ZM8.42703 18.492C7.96346 18.2168 7.41486 18.3709 7.1241 18.8691C6.67699 19.6371 6.23536 20.4078 5.79099 21.1758C5.70322 21.33 5.63739 21.4896 5.64836 21.6575C5.64561 22.0924 5.90894 22.4503 6.30119 22.5659C6.71813 22.6898 7.13507 22.5356 7.36548 22.1475C7.82631 21.3685 8.27342 20.584 8.72327 19.7995C9.00306 19.3096 8.87688 18.759 8.42703 18.492ZM16.9715 18.671C16.678 18.17 16.1321 18.0158 15.6713 18.2883C15.2215 18.5553 15.0925 19.1059 15.3723 19.5958C15.5945 19.9895 15.8249 20.3776 16.0526 20.7712C16.283 21.1703 16.5024 21.5722 16.7438 21.9658C16.9742 22.3429 17.4104 22.4943 17.8191 22.365C18.1949 22.2466 18.45 21.886 18.45 21.4401C18.461 21.2969 18.3979 21.1345 18.3101 20.9804C17.863 20.2097 17.4214 19.4389 16.9715 18.671Z" fill="white"/>
</svg>
