<svg width="24" height="15" viewBox="0 0 24 15" fill="none" xmlns="http://www.w3.org/2000/svg">
<path d="M2.96426 14.3525L3.89185 11.7108H9.49773L10.4253 14.3525H13.4098L8.34833 0.46875H5.06143L0 14.3525H2.96426ZM8.73146 9.48623H4.65812L6.69479 3.68644L8.73146 9.48623ZM18.2206 14.5312C19.054 14.5312 19.7901 14.3624 20.4286 14.0248C21.0672 13.6871 21.568 13.2601 21.9309 12.7436V14.3525H24.7742V3.34878H21.9309V4.9179C21.5545 4.41473 21.0537 3.99762 20.4286 3.66658C19.8035 3.33554 19.0742 3.17002 18.2407 3.17002C17.2862 3.17002 16.4225 3.40175 15.6495 3.8652C14.8765 4.32866 14.2648 4.99073 13.8145 5.85143C13.3641 6.71213 13.139 7.69862 13.139 8.81091C13.139 9.93644 13.3641 10.9329 13.8145 11.8002C14.2648 12.6675 14.8765 13.3395 15.6495 13.8162C16.4225 14.2929 17.2795 14.5312 18.2206 14.5312ZM18.9667 12.0882C18.4558 12.0882 17.9752 11.9558 17.5249 11.6909C17.0745 11.4261 16.7115 11.0454 16.4359 10.5489C16.1604 10.0523 16.0226 9.47299 16.0226 8.81091C16.0226 8.14883 16.1604 7.57614 16.4359 7.09282C16.7115 6.60951 17.0711 6.24205 17.5148 5.99047C17.9584 5.73888 18.4424 5.61308 18.9667 5.61308C19.491 5.61308 19.9816 5.74219 20.4387 6.0004C20.8958 6.25861 21.2588 6.62937 21.5276 7.11269C21.7965 7.596 21.9309 8.17532 21.9309 8.85064C21.9309 9.52595 21.7965 10.1053 21.5276 10.5886C21.2588 11.0719 20.8958 11.4427 20.4387 11.7009C19.9816 11.9591 19.491 12.0882 18.9667 12.0882Z" fill="white"/>
</svg>
