<svg width="24" height="25" viewBox="0 0 24 25" fill="none" xmlns="http://www.w3.org/2000/svg">
<path d="M9.02311 24.0543V9.75254L3.78428 15.0642C3.4227 15.4308 2.83513 15.4308 2.47355 15.0642L0.271186 12.8312C-0.0903955 12.4646 -0.0903955 11.8689 0.271186 11.5022L11.3446 0.274954C11.7062 -0.0916514 12.2938 -0.0916514 12.6554 0.274954L23.7288 11.5022C24.0904 11.8689 24.0904 12.4646 23.7288 12.8312L21.5264 15.0642C21.1649 15.4308 20.5773 15.4308 20.2157 15.0642L14.5907 9.36511V24.0585C14.5907 24.5792 14.1757 25 13.662 25H9.94761C9.43811 24.9958 9.02311 24.5709 9.02311 24.0543Z" fill="white"/>
</svg>
