<svg width="24" height="23" viewBox="0 0 24 23" fill="none" xmlns="http://www.w3.org/2000/svg">
<path d="M13.1613 0.5625H1.54839C0.693237 0.5625 0 1.26206 0 2.125V20.875C0 21.7379 0.693237 22.4375 1.54839 22.4375H13.1613C14.0164 22.4375 14.7097 21.7379 14.7097 20.875V2.125C14.7097 1.26206 14.0164 0.5625 13.1613 0.5625Z" fill="white"/>
<path d="M22.4516 0.5625H18.5806C17.7255 0.5625 17.0323 1.26206 17.0323 2.125V20.875C17.0323 21.7379 17.7255 22.4375 18.5806 22.4375H22.4516C23.3068 22.4375 24 21.7379 24 20.875V2.125C24 1.26206 23.3068 0.5625 22.4516 0.5625Z" fill="white"/>
</svg>
