<svg width="24" height="16" viewBox="0 0 24 16" fill="none" xmlns="http://www.w3.org/2000/svg">
<path d="M11.3497 0H12.6409C12.7177 0.016779 12.7944 0.0431461 12.8736 0.0479401C13.8072 0.11985 14.712 0.330787 15.5855 0.651985C18.6838 1.79775 21.2133 3.73693 23.2989 6.26816C24.2468 7.41873 24.2252 8.58846 23.2845 9.75101C21.9909 11.3522 20.455 12.6825 18.7246 13.79C17.2991 14.7008 15.7799 15.4031 14.1168 15.7579C13.6296 15.861 13.1328 15.9209 12.6409 16H11.3497C11.2729 15.9832 11.1937 15.9569 11.1145 15.9521C10.3105 15.8849 9.52337 15.7196 8.7602 15.4607C5.46992 14.3461 2.82762 12.3206 0.636497 9.66951C0.28371 9.24285 0.0557182 8.74667 0.00771999 8.18577C-0.0570776 7.38277 0.293309 6.73079 0.785291 6.13633C2.10284 4.54712 3.65079 3.21438 5.40032 2.11895C6.85707 1.20569 8.40741 0.512959 10.1065 0.189363C10.5193 0.110262 10.9345 0.0623221 11.3497 0ZM6.99386 8.0012C6.99386 10.741 9.23778 12.9894 11.9809 12.9942C14.7312 13.0013 16.9943 10.7434 16.9943 7.99641C16.9943 5.25663 14.7456 3.01064 12.0025 3.00584C9.24258 3.00105 6.99386 5.24464 6.99386 8.0012ZM12.936 5.17273C11.9401 6.00449 11.7217 6.89378 12.3073 7.73992C12.8976 8.59326 13.7856 8.69154 14.9736 8.03715C15.096 9.05828 14.2368 10.3335 13.1184 10.7841C11.8561 11.2923 10.3969 10.8824 9.59057 9.79655C8.7698 8.69154 8.789 7.19341 9.63857 6.13873C10.4449 5.13678 11.8921 4.71251 12.936 5.17273Z" fill="white"/>
</svg>
