<svg width="24" height="27" viewBox="0 0 24 27" fill="none" xmlns="http://www.w3.org/2000/svg">
<path d="M23.9956 4.69694C23.9928 3.34982 23.2113 2.67221 21.8298 2.7073C21.361 2.7181 21.2577 2.89628 21.2689 3.29853C21.2884 3.97883 21.2996 4.66184 21.2633 5.34215C21.2075 6.4436 20.5321 7.12931 19.4045 7.2157C18.8073 7.26159 18.2016 7.25889 17.6072 7.2184C16.3959 7.13741 15.7177 6.42741 15.6898 5.25036C15.6759 4.59435 15.6675 3.93834 15.6926 3.28233C15.7094 2.86118 15.5614 2.71 15.1149 2.7127C13.0273 2.7316 10.9397 2.7316 8.85487 2.7127C8.38042 2.7073 8.28832 2.90438 8.30227 3.30122C8.3246 3.98153 8.32181 4.66454 8.30506 5.34485C8.27994 6.37341 7.66594 7.07262 6.61098 7.1887C5.96628 7.26159 5.30762 7.25619 4.65734 7.2184C3.4712 7.15091 2.80975 6.4706 2.76789 5.31516C2.74556 4.63485 2.74277 3.95184 2.76789 3.27153C2.78463 2.84229 2.6116 2.7181 2.17621 2.71C0.75564 2.68031 0.00209319 3.36872 0.00209319 4.77253C-0.000697728 11.4865 -0.000697728 18.1978 0.00209319 24.9118C0.00209319 26.3588 0.646794 26.9933 2.13993 26.996C8.71533 27.0014 15.2879 27.0014 21.8633 26.996C23.3676 26.996 23.9956 26.375 23.9956 24.9145C24.0012 21.5589 23.9956 18.2005 23.9956 14.8449C23.9984 11.4595 24.004 8.07689 23.9956 4.69694ZM2.7344 9.4699C2.73157 9.11895 2.8879 8.97856 3.25072 8.97856C4.78572 8.98666 6.32072 8.98666 7.85293 8.98126C8.18226 8.98126 8.31064 9.11355 8.30785 9.4348C8.29669 10.6415 8.2939 11.851 8.31064 13.0577C8.31623 13.4573 8.09295 13.5032 7.76921 13.5005C7.01566 13.4924 6.26211 13.4978 5.50577 13.4978C4.75223 13.4978 3.99589 13.487 3.24234 13.5032C2.87673 13.5113 2.72882 13.3763 2.73157 13.0199C2.74556 11.8348 2.74277 10.6523 2.7344 9.4699ZM8.31343 23.805C8.31902 24.191 8.18784 24.3449 7.78037 24.3395C6.29839 24.326 4.81642 24.326 3.33444 24.3395C2.90185 24.3449 2.72603 24.1991 2.73161 23.7726C2.74835 22.6144 2.74556 21.459 2.7344 20.3008C2.73161 19.9472 2.87673 19.8068 3.24234 19.8149C3.99589 19.8311 4.74944 19.8203 5.50577 19.8203C6.25932 19.8203 7.01566 19.8338 7.76921 19.8149C8.16552 19.8041 8.32181 19.9337 8.31623 20.3332C8.2939 21.4914 8.29669 22.6495 8.31343 23.805ZM7.68269 18.9321C6.95426 18.9024 6.22304 18.924 5.49182 18.924C4.78851 18.924 4.08241 18.9024 3.3791 18.9321C2.92139 18.951 2.71765 18.8295 2.72882 18.3463C2.75393 17.2125 2.75114 16.0759 2.73161 14.9394C2.72323 14.502 2.90743 14.3805 3.33444 14.3859C4.79409 14.4048 6.25653 14.4129 7.71618 14.3832C8.22412 14.3724 8.3246 14.5722 8.31623 15.0069C8.2939 16.1164 8.28553 17.2287 8.31902 18.3382C8.33018 18.8187 8.14598 18.951 7.68269 18.9321ZM9.75355 8.98126C11.2411 8.98936 12.7287 8.99206 14.2162 8.97853C14.6181 8.97586 14.7716 9.11895 14.766 9.51039C14.7493 10.6712 14.7465 11.8321 14.766 12.9929C14.7716 13.406 14.5818 13.5086 14.1995 13.5005C13.4431 13.4843 12.6868 13.4951 11.9305 13.4951C11.1992 13.4951 10.468 13.4843 9.73959 13.5005C9.37119 13.5086 9.23444 13.3736 9.23723 13.0145C9.25118 11.8294 9.25118 10.6415 9.23723 9.4564C9.23164 9.08385 9.40189 8.97853 9.75355 8.98126ZM9.23444 14.9178C9.22885 14.5344 9.35445 14.3832 9.77029 14.3886C11.2551 14.4075 12.7398 14.4048 14.2274 14.3886C14.6404 14.3832 14.7716 14.5371 14.766 14.9205C14.7521 16.0786 14.7521 17.2395 14.766 18.4003C14.7716 18.7864 14.6349 18.9402 14.2246 18.9294C13.4683 18.9078 12.7147 18.924 11.9584 18.924C11.2551 18.924 10.5517 18.9105 9.84844 18.9294C9.44096 18.9429 9.22327 18.8592 9.23444 18.3976C9.25955 17.2395 9.25118 16.0786 9.23444 14.9178ZM14.7716 23.7348C14.7828 24.1991 14.6069 24.3503 14.1353 24.3449C12.7008 24.3233 11.2662 24.3287 9.8289 24.3422C9.40189 24.3476 9.22048 24.2261 9.23164 23.7834C9.25676 22.6468 9.25676 21.513 9.23164 20.3764C9.22327 19.9445 9.38235 19.7987 9.81774 19.8149C10.5462 19.8392 11.2774 19.823 12.0086 19.823C12.7119 19.823 13.418 19.8419 14.1213 19.8149C14.579 19.7987 14.78 19.9229 14.7688 20.4034C14.7409 21.513 14.7437 22.6252 14.7716 23.7348ZM15.6814 9.51579C15.6759 9.12974 15.8154 8.97316 16.2229 8.97856C17.7076 8.99206 19.1896 8.99206 20.6744 8.97856C21.093 8.97586 21.2912 9.10005 21.2828 9.54009C21.2633 10.6982 21.2689 11.8564 21.28 13.0145C21.2828 13.3709 21.1405 13.5086 20.7721 13.5005C19.9906 13.487 19.2092 13.4951 18.4305 13.4951C17.7272 13.4951 17.0239 13.4762 16.3234 13.5032C15.8684 13.5194 15.6675 13.3952 15.6814 12.9146C15.7066 11.7835 15.6982 10.6496 15.6814 9.51579ZM21.2773 23.8536C21.28 24.218 21.1014 24.3368 20.7525 24.3368C19.2175 24.3314 17.6797 24.3314 16.1447 24.3368C15.8154 24.3368 15.6814 24.1991 15.6842 23.8806C15.6926 22.6711 15.6954 21.4644 15.6842 20.255C15.6814 19.8527 15.9243 19.8176 16.2396 19.8203C16.9932 19.8257 17.7495 19.823 18.5031 19.823C19.2566 19.823 20.0129 19.8338 20.7665 19.8203C21.1321 19.8122 21.28 19.9472 21.2744 20.3062C21.2661 21.486 21.2661 22.6711 21.2773 23.8536ZM20.6325 18.9294C19.9041 18.9024 19.1757 18.9213 18.4472 18.9213C17.6937 18.9213 16.9374 18.9078 16.1838 18.924C15.8154 18.9321 15.6759 18.7944 15.6814 18.4381C15.6926 17.2557 15.6982 16.0732 15.6787 14.8908C15.6731 14.4777 15.8629 14.3832 16.2452 14.3859C17.7272 14.3994 19.2092 14.4021 20.6911 14.3832C21.1321 14.3778 21.2884 14.5236 21.28 14.9475C21.2605 16.0786 21.2549 17.2125 21.2828 18.3436C21.2968 18.8349 21.0819 18.9456 20.6325 18.9294ZM5.63974 6.29782C6.58586 6.23573 7.31987 5.50683 7.36731 4.55656C7.38964 4.07872 7.37011 3.59819 7.37011 3.12035C7.37011 2.66681 7.38685 2.21327 7.36731 1.75973C7.32266 0.79866 6.60539 0.075157 5.65648 0.00496639C4.71595 -0.0625246 3.86472 0.563792 3.73634 1.52216C3.59121 2.59662 3.59679 3.68997 3.73354 4.76443C3.85355 5.7228 4.70199 6.35722 5.63974 6.29782ZM18.4221 6.30052C19.438 6.33832 20.2585 5.57162 20.3311 4.48907C20.359 4.06252 20.3367 3.63328 20.3367 3.20404H20.3339C20.3339 2.7262 20.3646 2.24297 20.3283 1.76783C20.2474 0.731169 19.4408 -0.0112314 18.4528 0.00226675C17.462 0.0157649 16.6666 0.777063 16.6276 1.81372C16.5941 2.69381 16.5969 3.57929 16.6276 4.45937C16.6611 5.50683 17.4202 6.26273 18.4221 6.30052Z" fill="white"/>
</svg>
