<svg width="24" height="20" viewBox="0 0 24 20" fill="none" xmlns="http://www.w3.org/2000/svg">
<path d="M23.604 0.339491C23.484 0.252122 23.3448 0.222167 23.208 0.184723H4.8288C5.3016 0.62656 5.604 1.26311 5.604 1.97454C5.604 2.68597 5.3016 3.32002 4.8312 3.76435C10.9152 3.76186 16.9992 3.75936 23.0832 3.75936H23.1552C23.352 3.76186 23.5224 3.69196 23.6736 3.56715C23.844 3.42736 23.9352 3.23764 24 3.03045V0.9336C23.9328 0.688967 23.8104 0.484274 23.604 0.339491ZM3.7968 1.97454C3.7968 3.0654 2.9472 3.94908 1.8984 3.94908C0.8496 3.94908 0 3.0654 0 1.97454C0 0.883674 0.8496 0 1.8984 0C2.9472 0 3.7968 0.883674 3.7968 1.97454ZM23.208 5.53919H4.8288C5.3016 5.98352 5.604 6.61757 5.604 7.32901C5.604 8.04044 5.3016 8.67698 4.8312 9.11882C10.9152 9.11633 16.9992 9.11633 23.0832 9.11633H23.1552C23.352 9.11882 23.5224 9.04643 23.6736 8.92162C23.844 8.78183 23.9352 8.59211 24 8.38492V6.28807C23.9328 6.04343 23.8104 5.83874 23.604 5.69396C23.484 5.60909 23.3448 5.57664 23.208 5.53919ZM3.7968 7.32901C3.7968 8.41987 2.9472 9.30604 1.8984 9.30604C0.8496 9.30604 0 8.41987 0 7.32901C0 6.24064 0.8496 5.35447 1.8984 5.35447C2.9472 5.35447 3.7968 6.24064 3.7968 7.32901ZM23.208 10.8887H4.8288C5.3016 11.333 5.604 11.967 5.604 12.6785C5.604 13.3899 5.3016 14.0265 4.8312 14.4683C10.9152 14.4658 16.9992 14.4658 23.0832 14.4658H23.1552C23.352 14.4683 23.5224 14.3959 23.6736 14.2711C23.844 14.1313 23.9352 13.9416 24 13.7369V11.6375C23.9328 11.3929 23.8104 11.1882 23.604 11.0434C23.484 10.9586 23.3448 10.9261 23.208 10.8887ZM3.7968 12.6785C3.7968 13.7693 2.9472 14.6555 1.8984 14.6555C0.8496 14.6555 0 13.7693 0 12.6785C0 11.5901 0.8496 10.7039 1.8984 10.7039C2.9472 10.7039 3.7968 11.5901 3.7968 12.6785ZM23.208 16.2356H4.8288C5.3016 16.6775 5.604 17.314 5.604 18.0255C5.604 18.7369 5.3016 19.3709 4.8312 19.8153C10.9152 19.8128 16.9992 19.8103 23.0832 19.8103H23.1552C23.352 19.8153 23.5224 19.7429 23.6736 19.6181C23.844 19.4783 23.9352 19.2886 24 19.0814V16.9845C23.9328 16.7399 23.8104 16.5352 23.604 16.3904C23.484 16.303 23.3448 16.2731 23.208 16.2356ZM3.7968 18.0255C3.7968 19.1163 2.9472 20 1.8984 20C0.8496 20 0 19.1163 0 18.0255C0 16.9346 0.8496 16.0509 1.8984 16.0509C2.9472 16.0509 3.7968 16.9346 3.7968 18.0255Z" fill="white"/>
</svg>
