<svg width="180" height="60" viewBox="0 0 180 60" fill="none" xmlns="http://www.w3.org/2000/svg">
<path d="M165.666 0.000195H14.3422C13.7906 0.000195 13.2456 0.000195 12.6955 0.003195C12.235 0.006195 11.7781 0.01491 11.3132 0.022245C10.3031 0.0340977 9.29543 0.122709 8.29888 0.28731C7.30373 0.455494 6.33976 0.772569 5.43956 1.22781C4.54046 1.6869 3.71893 2.28345 3.00477 2.9958C2.28686 3.70615 1.68842 4.52722 1.23248 5.42743C0.775271 6.32586 0.458244 7.2886 0.292343 8.28242C0.124866 9.27497 0.0347448 10.279 0.0227888 11.2854C0.00882972 11.7453 0.00735559 12.2067 0 12.6667V47.3381C0.00735559 47.8038 0.00882972 48.255 0.0227888 48.7209C0.0347485 49.7273 0.12487 50.7313 0.292343 51.7238C0.457785 52.7182 0.774831 53.6815 1.23248 54.5802C1.68821 55.4775 2.28673 56.2953 3.00477 57.0017C3.71622 57.7172 4.53828 58.3142 5.43956 58.7697C6.33975 59.2262 7.30362 59.5452 8.29888 59.7159C9.2956 59.8792 10.3032 59.9679 11.3132 59.9811C11.7781 59.9913 12.235 59.9972 12.6955 59.9972C13.2456 60.0002 13.7906 60.0002 14.3422 60.0002H165.666C166.207 60.0002 166.756 60.0002 167.296 59.9972C167.755 59.9972 168.225 59.9913 168.683 59.9811C169.691 59.9686 170.697 59.8799 171.692 59.7159C172.69 59.544 173.657 59.2251 174.562 58.7697C175.462 58.3139 176.284 57.717 176.995 57.0017C177.711 56.2925 178.311 55.4754 178.772 54.5802C179.226 53.6808 179.54 52.7176 179.703 51.7238C179.871 50.7311 179.964 49.7274 179.982 48.7209C179.988 48.255 179.988 47.8038 179.988 47.3381C180 46.7931 180 46.2512 180 45.6974V14.3044C180 13.7551 180 13.2102 179.988 12.6667C179.988 12.2067 179.988 11.7453 179.982 11.2854C179.964 10.2788 179.871 9.27505 179.703 8.28236C179.54 7.28912 179.226 6.32645 178.772 5.42737C177.843 3.62299 176.371 2.15423 174.562 1.22767C173.657 0.773546 172.69 0.456556 171.692 0.287175C170.697 0.121849 169.691 0.0332066 168.683 0.022035C168.225 0.014715 167.755 0.005925 167.296 0.003C166.756 0 166.207 0 165.666 0V0.000195Z" fill="#A6A6A6"/>
<path d="M12.7028 58.6875C12.2445 58.6875 11.7973 58.6816 11.3425 58.6714C10.4006 58.6592 9.46082 58.5774 8.53096 58.4268C7.66392 58.2779 6.82399 58.0009 6.03888 57.605C5.26096 57.2123 4.55144 56.6974 3.93749 56.08C3.31466 55.47 2.79612 54.7624 2.40243 53.9853C2.0044 53.2032 1.72894 52.3648 1.58564 51.4995C1.4309 50.5697 1.34717 49.6295 1.33519 48.687C1.32566 48.3707 1.31317 47.3174 1.31317 47.3174V12.6665C1.31317 12.6665 1.32647 11.6294 1.33527 11.3247C1.34674 10.3837 1.42998 9.44498 1.58426 8.5166C1.72782 7.64888 2.00349 6.80812 2.40174 6.02344C2.79398 5.24692 3.30964 4.53879 3.92872 3.92652C4.54711 3.30843 5.2589 2.79091 6.03814 2.39281C6.82145 1.99814 7.65979 1.7231 8.52508 1.57691C9.45799 1.42475 10.401 1.34249 11.3462 1.33082L12.7035 1.3125H167.289L168.663 1.33155C169.599 1.34265 170.534 1.42417 171.458 1.57543C172.332 1.72346 173.179 2.00042 173.971 2.39721C175.533 3.19948 176.803 4.46874 177.604 6.02711C177.996 6.80637 178.267 7.64026 178.409 8.50048C178.565 9.43649 178.653 10.3826 178.671 11.3313C178.675 11.7561 178.675 12.2124 178.675 12.6665C178.687 13.229 178.687 13.7644 178.687 14.3042V45.6972C178.687 46.2421 178.687 46.7739 178.675 47.31C178.675 47.7978 178.675 48.2446 178.669 48.7045C178.652 49.6363 178.566 50.5655 178.412 51.4848C178.272 52.3564 177.998 53.2013 177.6 53.9898C177.203 54.7584 176.688 55.4599 176.072 56.0683C175.458 56.689 174.747 57.2069 173.967 57.6021C173.177 58.0011 172.331 58.2791 171.458 58.4268C170.528 58.5782 169.588 58.66 168.646 58.6714C168.206 58.6816 167.744 58.6875 167.296 58.6875L165.666 58.6905L12.7028 58.6875Z" fill="black"/>
<path d="M37.2576 30.451C37.2738 29.199 37.6073 27.9714 38.227 26.8825C38.8468 25.7936 39.7327 24.8787 40.8024 24.2229C40.1229 23.2552 39.2264 22.4587 38.1843 21.8969C37.1421 21.3351 35.9829 21.0233 34.7988 20.9864C32.2729 20.722 29.8241 22.4936 28.5369 22.4936C27.2249 22.4936 25.2431 21.0126 23.109 21.0564C21.7286 21.1009 20.3833 21.5012 19.2042 22.2182C18.0251 22.9353 17.0524 23.9448 16.3808 25.1482C13.4716 30.1708 15.6416 37.5524 18.4283 41.6123C19.8226 43.6004 21.4521 45.821 23.5842 45.7423C25.6706 45.656 26.4499 44.4156 28.9684 44.4156C31.4635 44.4156 32.1946 45.7423 34.37 45.6922C36.6088 45.656 38.0194 43.6953 39.3647 41.6885C40.3665 40.272 41.1374 38.7064 41.6488 37.0497C40.3481 36.5011 39.2381 35.5829 38.4572 34.4094C37.6763 33.236 37.2591 31.8593 37.2576 30.451V30.451Z" fill="white"/>
<path d="M33.1486 18.3165C34.3694 16.8552 34.9707 14.9769 34.8251 13.0806C32.9601 13.2759 31.2374 14.1647 30.0002 15.57C29.3953 16.2565 28.932 17.0551 28.6368 17.9203C28.3417 18.7854 28.2203 19.7001 28.2799 20.6121C29.2127 20.6216 30.1355 20.42 30.9789 20.0224C31.8222 19.6248 32.5641 19.0415 33.1486 18.3165Z" fill="white"/>
<path d="M63.6315 40.7095H56.5115L54.8017 45.7442H51.7859L58.5299 27.1172H61.6631L68.4071 45.7442H65.3399L63.6315 40.7095ZM57.2489 38.3863H62.8927L60.1105 30.2154H60.0327L57.2489 38.3863Z" fill="white"/>
<path d="M82.9718 38.9547C82.9718 43.1749 80.7067 45.8863 77.2884 45.8863C76.4225 45.9315 75.5614 45.7326 74.8035 45.3124C74.0457 44.8922 73.4219 44.2676 73.0035 43.5103H72.9388V50.2369H70.1434V32.1636H72.8492V34.4224H72.9006C73.3383 33.6687 73.9727 33.0474 74.7363 32.6247C75.4998 32.2019 76.3641 31.9935 77.237 32.0215C80.6934 32.0216 82.9718 34.7462 82.9718 38.9547ZM80.0985 38.9547C80.0985 36.2052 78.6736 34.3975 76.4996 34.3975C74.3637 34.3975 72.9271 36.2432 72.9271 38.9547C72.9271 41.691 74.3637 43.5235 76.4996 43.5235C78.6736 43.5235 80.0985 41.7291 80.0985 38.9547Z" fill="white"/>
<path d="M97.9611 38.9547C97.9611 43.1749 95.6959 45.8863 92.2777 45.8863C91.4118 45.9315 90.5506 45.7325 89.7928 45.3123C89.035 44.8921 88.4112 44.2676 87.9927 43.5103H87.9281V50.2369H85.1326V32.1636H87.8384V34.4224H87.8898C88.3275 33.6687 88.9619 33.0474 89.7255 32.6247C90.489 32.2019 91.3533 31.9935 92.2262 32.0215C95.6827 32.0215 97.9611 34.7461 97.9611 38.9547ZM95.0878 38.9547C95.0878 36.2052 93.6629 34.3975 91.4888 34.3975C89.353 34.3975 87.9163 36.2432 87.9163 38.9547C87.9163 41.691 89.353 43.5235 91.4888 43.5235C93.6629 43.5235 95.0878 41.7291 95.0878 38.9547H95.0878Z" fill="white"/>
<path d="M107.868 40.5543C108.075 42.4015 109.874 43.6143 112.333 43.6143C114.69 43.6143 116.385 42.4014 116.385 40.7359C116.385 39.29 115.362 38.4243 112.941 37.8311L110.521 37.2495C107.091 36.4233 105.498 34.8237 105.498 32.228C105.498 29.0142 108.307 26.8066 112.295 26.8066C116.242 26.8066 118.948 29.0142 119.039 32.228H116.217C116.048 30.3691 114.507 29.2471 112.255 29.2471C110.004 29.2471 108.463 30.3823 108.463 32.0347C108.463 33.3516 109.447 34.1265 111.854 34.7197L113.912 35.2236C117.745 36.1274 119.337 37.6626 119.337 40.3872C119.337 43.872 116.554 46.0546 112.126 46.0546C107.984 46.0546 105.187 43.9233 105.006 40.5541L107.868 40.5543Z" fill="white"/>
<path d="M125.37 28.9497V32.1636H127.96V34.3711H125.37V41.8579C125.37 43.021 125.889 43.563 127.027 43.563C127.335 43.5576 127.642 43.5361 127.947 43.4985V45.6928C127.435 45.7882 126.915 45.8314 126.394 45.8217C123.637 45.8217 122.562 44.789 122.562 42.1552V34.3711H120.581V32.1636H122.562V28.9497H125.37Z" fill="white"/>
<path d="M129.46 38.9546C129.46 34.6816 131.984 31.9966 135.919 31.9966C139.867 31.9966 142.379 34.6816 142.379 38.9546C142.379 43.2393 139.881 45.9126 135.919 45.9126C131.959 45.9126 129.46 43.2392 129.46 38.9546ZM139.531 38.9546C139.531 36.0234 138.184 34.2935 135.919 34.2935C133.654 34.2935 132.308 36.0366 132.308 38.9546C132.308 41.8975 133.654 43.6143 135.919 43.6143C138.184 43.6143 139.531 41.8975 139.531 38.9546H139.531Z" fill="white"/>
<path d="M144.684 32.1635H147.35V34.475H147.415C147.595 33.7531 148.019 33.1151 148.616 32.6683C149.213 32.2214 149.945 31.993 150.691 32.0214C151.013 32.0203 151.334 32.0552 151.649 32.1254V34.7328C151.242 34.6089 150.818 34.552 150.393 34.5644C149.986 34.548 149.582 34.6194 149.206 34.7737C148.83 34.928 148.492 35.1616 148.215 35.4585C147.939 35.7553 147.73 36.1083 147.603 36.4933C147.476 36.8783 147.434 37.2862 147.48 37.6889V45.7441H144.684L144.684 32.1635Z" fill="white"/>
<path d="M164.537 41.7554C164.161 44.2207 161.753 45.9126 158.673 45.9126C154.711 45.9126 152.252 43.2656 152.252 39.019C152.252 34.7593 154.724 31.9966 158.555 31.9966C162.323 31.9966 164.693 34.5776 164.693 38.6953V39.6504H155.074V39.8188C155.03 40.3186 155.092 40.8221 155.258 41.2959C155.424 41.7697 155.689 42.2028 156.035 42.5667C156.382 42.9305 156.802 43.2166 157.268 43.4061C157.734 43.5955 158.235 43.684 158.738 43.6655C159.398 43.7272 160.061 43.5747 160.628 43.2305C161.194 42.8863 161.635 42.369 161.883 41.7554L164.537 41.7554ZM155.087 37.7021H161.896C161.921 37.2528 161.853 36.803 161.695 36.3812C161.538 35.9594 161.295 35.5746 160.981 35.251C160.667 34.9273 160.29 34.6718 159.872 34.5005C159.455 34.3291 159.007 34.2457 158.555 34.2554C158.1 34.2527 157.649 34.3399 157.228 34.512C156.807 34.6841 156.424 34.9377 156.101 35.2582C155.779 35.5786 155.523 35.9596 155.349 36.379C155.175 36.7985 155.086 37.2482 155.087 37.7022V37.7021Z" fill="white"/>
<path d="M56.8986 13.0966C57.4847 13.0546 58.0727 13.1429 58.6204 13.3551C59.1681 13.5672 59.6618 13.898 60.0658 14.3234C60.4698 14.7488 60.7741 15.2584 60.9567 15.8153C61.1393 16.3722 61.1957 16.9626 61.1218 17.5438C61.1218 20.4032 59.5721 22.0468 56.8986 22.0468H53.6566V13.0966H56.8986ZM55.0506 20.7811H56.7429C57.1617 20.806 57.5808 20.7376 57.9696 20.5807C58.3585 20.4237 58.7075 20.1823 58.991 19.874C59.2745 19.5656 59.4855 19.1981 59.6087 18.7982C59.7318 18.3982 59.764 17.976 59.7028 17.5621C59.7595 17.1498 59.7241 16.7302 59.5991 16.3332C59.4741 15.9362 59.2625 15.5717 58.9796 15.2658C58.6968 14.9599 58.3495 14.7202 57.9628 14.5638C57.5761 14.4075 57.1595 14.3383 56.7429 14.3614H55.0506V20.7811Z" fill="white"/>
<path d="M62.6966 18.6667C62.654 18.2228 62.7049 17.7749 62.8461 17.3518C62.9872 16.9287 63.2155 16.5397 63.5162 16.2098C63.817 15.8798 64.1836 15.6161 64.5925 15.4357C65.0014 15.2553 65.4437 15.1621 65.8908 15.1621C66.338 15.1621 66.7802 15.2553 67.1891 15.4357C67.598 15.6161 67.9646 15.8798 68.2654 16.2098C68.5661 16.5397 68.7944 16.9287 68.9356 17.3518C69.0767 17.7749 69.1276 18.2228 69.0851 18.6667C69.1284 19.111 69.0781 19.5595 68.9373 19.9833C68.7966 20.4071 68.5684 20.7968 68.2676 21.1274C67.9668 21.458 67.5999 21.7222 67.1906 21.903C66.7812 22.0838 66.3385 22.1772 65.8908 22.1772C65.4431 22.1772 65.0004 22.0838 64.5911 21.903C64.1817 21.7222 63.8149 21.458 63.514 21.1274C63.2132 20.7968 62.9851 20.4071 62.8443 19.9833C62.7035 19.5595 62.6532 19.111 62.6966 18.6667ZM67.7101 18.6667C67.7101 17.2026 67.0505 16.3464 65.893 16.3464C64.7311 16.3464 64.0774 17.2026 64.0774 18.6667C64.0774 20.1425 64.7311 20.9921 65.893 20.9921C67.0506 20.9921 67.7101 20.1366 67.7101 18.6667H67.7101Z" fill="white"/>
<path d="M77.5771 22.0469H76.1904L74.7905 17.0723H74.6847L73.2907 22.0469H71.9172L70.0502 15.2925H71.406L72.6194 20.4465H72.7193L74.1118 15.2925H75.3942L76.7868 20.4465H76.8926L78.1 15.2925H79.4368L77.5771 22.0469Z" fill="white"/>
<path d="M81.0071 15.2923H82.2939V16.3653H82.3938C82.5632 15.9799 82.849 15.6569 83.2114 15.4411C83.5737 15.2254 83.9945 15.1278 84.4151 15.1619C84.7446 15.1372 85.0756 15.1868 85.3833 15.3069C85.6911 15.4271 85.9678 15.6147 86.1929 15.856C86.4181 16.0972 86.5859 16.3859 86.684 16.7007C86.7821 17.0154 86.8079 17.3481 86.7595 17.6741V22.0466H85.4228V18.0089C85.4228 16.9234 84.9498 16.3836 83.9612 16.3836C83.7374 16.3732 83.514 16.4112 83.3064 16.4949C83.0987 16.5787 82.9116 16.7062 82.758 16.8688C82.6044 17.0314 82.4879 17.2252 82.4164 17.4368C82.3449 17.6485 82.3201 17.8732 82.3438 18.0953V22.0467H81.0071L81.0071 15.2923Z" fill="white"/>
<path d="M88.8895 12.6558H90.2263V22.0469H88.8895V12.6558Z" fill="white"/>
<path d="M92.0845 18.6668C92.0419 18.2229 92.0929 17.775 92.2341 17.3519C92.3753 16.9288 92.6036 16.5398 92.9043 16.2098C93.2051 15.8798 93.5718 15.6161 93.9807 15.4357C94.3897 15.2553 94.8319 15.1621 95.2791 15.1621C95.7263 15.1621 96.1685 15.2553 96.5775 15.4357C96.9864 15.6161 97.353 15.8798 97.6538 16.2098C97.9546 16.5398 98.1829 16.9288 98.3241 17.3519C98.4653 17.775 98.5162 18.2229 98.4737 18.6668C98.517 19.1112 98.4667 19.5596 98.3258 19.9834C98.185 20.4072 97.9568 20.7969 97.656 21.1275C97.3551 21.4581 96.9882 21.7223 96.5789 21.9031C96.1695 22.0839 95.7268 22.1773 95.2791 22.1773C94.8314 22.1773 94.3886 22.0839 93.9793 21.9031C93.5699 21.7223 93.203 21.4581 92.9022 21.1275C92.6013 20.7969 92.3731 20.4072 92.2323 19.9834C92.0915 19.5596 92.0411 19.1112 92.0845 18.6668ZM97.098 18.6668C97.098 17.2027 96.4384 16.3465 95.2809 16.3465C94.119 16.3465 93.4653 17.2027 93.4653 18.6668C93.4653 20.1427 94.119 20.9923 95.2809 20.9923C96.4384 20.9922 97.098 20.1368 97.098 18.6668H97.098Z" fill="white"/>
<path d="M99.881 20.1367C99.881 18.9209 100.789 18.22 102.4 18.1203L104.235 18.0149V17.4319C104.235 16.7185 103.762 16.3157 102.848 16.3157C102.102 16.3157 101.585 16.5889 101.437 17.0664H100.142C100.279 15.9062 101.373 15.1621 102.91 15.1621C104.608 15.1621 105.566 16.0051 105.566 17.4319V22.0469H104.279V21.0977H104.173C103.959 21.4381 103.657 21.7157 103.3 21.902C102.942 22.0883 102.542 22.1767 102.139 22.1582C101.854 22.1876 101.567 22.1574 101.295 22.0693C101.023 21.9813 100.773 21.8374 100.56 21.647C100.347 21.4565 100.177 21.2237 100.06 20.9636C99.9431 20.7035 99.8821 20.4218 99.881 20.1367ZM104.235 19.5596V18.9949L102.581 19.1003C101.648 19.1626 101.225 19.479 101.225 20.0744C101.225 20.6823 101.754 21.0361 102.481 21.0361C102.694 21.0576 102.909 21.0362 103.114 20.973C103.319 20.9099 103.508 20.8064 103.672 20.6686C103.836 20.5308 103.97 20.3617 104.066 20.1711C104.163 19.9806 104.221 19.7726 104.235 19.5596Z" fill="white"/>
<path d="M107.323 18.6668C107.323 16.5325 108.423 15.1804 110.134 15.1804C110.558 15.161 110.978 15.2621 111.346 15.4719C111.713 15.6818 112.014 15.9917 112.211 16.3654H112.311V12.6558H113.648V22.0469H112.367V20.9797H112.261C112.048 21.351 111.738 21.657 111.363 21.8647C110.988 22.0725 110.563 22.1739 110.134 22.1582C108.411 22.1583 107.323 20.8062 107.323 18.6668ZM108.704 18.6668C108.704 20.0994 109.381 20.9615 110.513 20.9615C111.64 20.9615 112.336 20.087 112.336 18.6726C112.336 17.2649 111.633 16.378 110.513 16.378C109.388 16.378 108.704 17.2459 108.704 18.6668H108.704Z" fill="white"/>
<path d="M119.179 18.6667C119.136 18.2228 119.187 17.7749 119.328 17.3518C119.469 16.9287 119.698 16.5397 119.998 16.2098C120.299 15.8798 120.666 15.6161 121.075 15.4357C121.484 15.2553 121.926 15.1621 122.373 15.1621C122.82 15.1621 123.262 15.2553 123.671 15.4357C124.08 15.6161 124.447 15.8798 124.747 16.2098C125.048 16.5397 125.277 16.9287 125.418 17.3518C125.559 17.7749 125.61 18.2228 125.567 18.6667C125.611 19.111 125.56 19.5595 125.419 19.9833C125.279 20.4071 125.051 20.7968 124.75 21.1274C124.449 21.458 124.082 21.7222 123.673 21.903C123.263 22.0838 122.821 22.1772 122.373 22.1772C121.925 22.1772 121.482 22.0838 121.073 21.903C120.664 21.7222 120.297 21.458 119.996 21.1274C119.695 20.7968 119.467 20.4071 119.326 19.9833C119.186 19.5595 119.135 19.111 119.179 18.6667ZM124.192 18.6667C124.192 17.2026 123.533 16.3464 122.375 16.3464C121.213 16.3464 120.56 17.2026 120.56 18.6667C120.56 20.1425 121.213 20.9921 122.375 20.9921C123.533 20.9921 124.192 20.1366 124.192 18.6667Z" fill="white"/>
<path d="M127.361 15.2923H128.648V16.3653H128.747C128.917 15.9799 129.203 15.6569 129.565 15.4411C129.927 15.2254 130.348 15.1278 130.769 15.1619C131.098 15.1372 131.429 15.1868 131.737 15.3069C132.045 15.4271 132.321 15.6147 132.547 15.856C132.772 16.0972 132.94 16.3859 133.038 16.7007C133.136 17.0154 133.162 17.3481 133.113 17.6741V22.0466H131.776V18.0089C131.776 16.9234 131.303 16.3836 130.315 16.3836C130.091 16.3732 129.868 16.4112 129.66 16.4949C129.452 16.5787 129.265 16.7062 129.112 16.8688C128.958 17.0314 128.841 17.2252 128.77 17.4368C128.699 17.6485 128.674 17.8732 128.697 18.0953V22.0467H127.361V15.2923Z" fill="white"/>
<path d="M140.667 13.6108V15.3232H142.134V16.446H140.667V19.9192C140.667 20.6267 140.959 20.9365 141.624 20.9365C141.795 20.936 141.965 20.9257 142.134 20.9058V22.0161C141.894 22.0589 141.651 22.0817 141.407 22.0842C139.92 22.0842 139.328 21.5627 139.328 20.2605V16.446H138.253V15.3232H139.328V13.6108H140.667Z" fill="white"/>
<path d="M143.96 12.6558H145.285V16.3779H145.391C145.568 15.989 145.862 15.6641 146.232 15.4475C146.601 15.231 147.029 15.1334 147.456 15.168C147.784 15.1502 148.112 15.2048 148.416 15.3278C148.72 15.4509 148.993 15.6394 149.216 15.8799C149.439 16.1204 149.606 16.407 149.705 16.7192C149.804 17.0314 149.832 17.3615 149.789 17.686V22.0469H148.451V18.0149C148.451 16.936 147.947 16.3896 147.002 16.3896C146.772 16.3708 146.541 16.4023 146.325 16.4819C146.109 16.5615 145.913 16.6872 145.75 16.8504C145.588 17.0135 145.463 17.21 145.385 17.4262C145.306 17.6424 145.276 17.8731 145.297 18.102V22.0469H143.96L143.96 12.6558Z" fill="white"/>
<path d="M157.583 20.2233C157.401 20.8406 157.008 21.3745 156.471 21.7318C155.935 22.089 155.289 22.2467 154.648 22.1773C154.202 22.1891 153.758 22.1039 153.348 21.9276C152.939 21.7513 152.572 21.4881 152.274 21.1564C151.977 20.8247 151.755 20.4324 151.624 20.0067C151.494 19.5809 151.458 19.132 151.519 18.691C151.46 18.2487 151.496 17.7988 151.626 17.3718C151.757 16.9448 151.977 16.5506 152.273 16.216C152.569 15.8814 152.934 15.6142 153.343 15.4323C153.752 15.2505 154.195 15.1584 154.642 15.1622C156.527 15.1622 157.664 16.4462 157.664 18.5672V19.0324H152.881V19.1071C152.86 19.3549 152.891 19.6044 152.973 19.8395C153.054 20.0747 153.184 20.2902 153.354 20.4724C153.523 20.6546 153.73 20.7994 153.959 20.8975C154.188 20.9956 154.435 21.0448 154.685 21.0421C155.005 21.0803 155.328 21.0229 155.615 20.8771C155.902 20.7313 156.139 20.5037 156.296 20.2232L157.583 20.2233ZM152.881 18.0465H156.302C156.319 17.8198 156.288 17.5921 156.211 17.378C156.135 17.164 156.014 16.9682 155.857 16.8034C155.7 16.6387 155.51 16.5085 155.3 16.4212C155.089 16.3339 154.863 16.2915 154.635 16.2967C154.404 16.2939 154.174 16.3371 153.96 16.4241C153.746 16.511 153.551 16.6398 153.388 16.8028C153.224 16.9659 153.095 17.16 153.008 17.3735C152.921 17.5871 152.878 17.816 152.881 18.0465H152.881Z" fill="white"/>
</svg>
