<svg width="192" height="64" viewBox="0 0 192 64" fill="none" xmlns="http://www.w3.org/2000/svg">
<path fill-rule="evenodd" clip-rule="evenodd" d="M18.1591 0H45.7439C52.0586 0 54.3485 0.658133 56.6564 1.8944C58.9644 3.13173 60.7771 4.94613 62.0115 7.2576C63.2459 9.56907 63.903 11.8624 63.903 18.1867V45.8133C63.903 52.1376 63.2459 54.4299 62.0115 56.7424C60.7771 59.0539 58.9644 60.8683 56.6564 62.1056C54.3485 63.3419 52.0586 64 45.7439 64H18.1591C11.8444 64 9.55457 63.3419 7.24661 62.1056C4.93864 60.8683 3.12699 59.0539 1.8926 56.7424C0.657136 54.4299 0 52.1376 0 45.8133V18.1867C0 11.8624 0.657136 9.56907 1.8926 7.2576C3.12699 4.94613 4.93864 3.13173 7.24661 1.8944C9.55457 0.658133 11.8444 0 18.1591 0Z" fill="url(#paint0_linear_1_24)"/>
<path opacity="0.9" fill-rule="evenodd" clip-rule="evenodd" d="M24.356 17.0667V17.4133L24.0013 17.7675C22.2504 19.5595 20.9042 21.6789 19.9616 24.1269C18.9562 26.7381 18.4535 29.4293 18.4535 32.2005C18.4535 34.9003 18.9296 37.5061 19.8828 40.0203C20.836 42.5333 22.1961 44.7136 23.963 46.56V46.9333H20.263L19.9499 46.6144C18.4034 44.9963 17.1914 42.9696 16.3149 40.5397C15.3787 37.9456 14.9111 35.1659 14.9111 32.2005C14.9111 29.1627 15.4011 26.3072 16.3798 23.6341C17.3597 20.9611 18.7858 18.7723 20.6571 17.0667H24.356ZM43.2468 17.0667L43.5929 17.392C45.2949 19.0475 46.6049 21.1285 47.523 23.6341C48.5028 26.3072 48.9928 29.1627 48.9928 32.2005C48.9928 35.1659 48.5241 37.9456 47.589 40.5397C46.6528 43.1328 45.3364 45.264 43.6398 46.9333H39.9409V46.56L40.2881 46.1867C41.8867 44.4213 43.1307 42.3659 44.02 40.0203C44.9743 37.5061 45.4504 34.9003 45.4504 32.2005C45.4504 29.4293 44.9477 26.7381 43.9423 24.1269C42.9358 21.5157 41.4714 19.2779 39.5479 17.4133V17.0667H43.2468ZM28.0294 23.088V30.7339H35.8735V23.088H39.5479V41.6843H35.8735V33.7717H28.0294V41.6843H24.356V23.088H28.0294Z" fill="white"/>
<path fill-rule="evenodd" clip-rule="evenodd" d="M137.331 26.0891C138.742 26.0891 140.018 26.4347 141.162 27.1259C142.305 27.8171 143.21 28.8005 143.876 30.0741C144.541 31.3477 144.874 32.824 144.874 34.504C144.874 36.1819 144.541 37.6688 143.876 38.9627C143.21 40.2576 142.305 41.2592 141.162 41.9707C140.018 42.6811 138.742 43.0373 137.331 43.0373C136.118 43.0373 135.05 42.7909 134.125 42.296C133.305 41.8576 132.62 41.3168 132.073 40.6747L131.875 40.4293V50.5925H127.701V26.3557H131.875V28.7259L132.061 28.4805C132.579 27.8373 133.257 27.2923 134.096 26.8443C135.041 26.3408 136.118 26.0891 137.331 26.0891ZM157.545 26.0891C158.956 26.0891 160.233 26.4347 161.376 27.1259C162.518 27.8171 163.423 28.8005 164.088 30.0741C164.754 31.3477 165.087 32.824 165.087 34.504C165.087 36.1819 164.754 37.6688 164.088 38.9627C163.423 40.2576 162.518 41.2592 161.376 41.9707C160.233 42.6811 158.956 43.0373 157.545 43.0373C156.333 43.0373 155.264 42.7909 154.34 42.296C153.518 41.8576 152.834 41.3168 152.287 40.6747L152.088 40.4293V50.5925H147.915V26.3557H152.088V28.7259L152.275 28.4805C152.792 27.8373 153.47 27.2923 154.309 26.8443C155.254 26.3408 156.333 26.0891 157.545 26.0891ZM178.972 26.3557L183.236 37.8224L187.558 26.3557H192L181.774 50.5339H177.332L180.91 42.3557L174.291 26.3557H178.972ZM109.153 15.3925V15.7776L108.749 16.1712C106.761 18.1648 105.23 20.5221 104.159 23.2443C103.016 26.1477 102.444 29.1408 102.444 32.2224C102.444 35.2251 102.986 38.1243 104.07 40.9189C105.153 43.7136 106.698 46.1381 108.706 48.1925V48.6075H104.502L104.165 48.2736C102.399 46.4699 101.015 44.2107 100.015 41.496C98.9519 38.6128 98.4204 35.5205 98.4204 32.2224C98.4204 28.8443 98.9764 25.6688 100.089 22.696C101.202 19.7232 102.822 17.2891 104.949 15.3925H109.153ZM166.553 15.3925L166.922 15.7328C168.867 17.5771 170.365 19.8981 171.413 22.696C172.526 25.6688 173.082 28.8443 173.082 32.2224C173.082 35.5205 172.549 38.6128 171.486 41.496C170.423 44.3803 168.928 46.7515 166.999 48.6075H162.795V48.1925L163.167 47.8032C164.996 45.8331 166.416 43.5387 167.432 40.9189C168.515 38.1243 169.057 35.2251 169.057 32.2224C169.057 29.1408 168.486 26.1477 167.343 23.2443C166.199 20.3408 164.536 17.8523 162.348 15.7776V15.3925H166.553ZM113.957 26.0891C115.19 26.0891 116.267 26.3355 117.192 26.8293C118.013 27.2688 118.689 27.8085 119.221 28.4507L119.413 28.696V26.3557H123.616V42.7707H119.413V40.3707L119.226 40.6224C118.71 41.2805 118.031 41.8331 117.192 42.2811C116.247 42.7856 115.16 43.0373 113.926 43.0373C112.537 43.0373 111.268 42.6811 110.126 41.9707C108.984 41.2592 108.078 40.2576 107.413 38.9627C106.747 37.6688 106.415 36.1819 106.415 34.504C106.415 32.8443 106.747 31.3733 107.413 30.0891C108.078 28.8048 108.984 27.8171 110.126 27.1259C111.268 26.4347 112.546 26.0891 113.957 26.0891ZM82.2146 22.0891V30.5925H91.128V22.0891H95.3019V42.7707H91.128V33.9707H82.2146V42.7707H78.0406V22.0891H82.2146ZM115.031 29.7339C114.256 29.7339 113.54 29.9205 112.884 30.296C112.228 30.6715 111.696 31.2197 111.288 31.9408C110.881 32.6619 110.678 33.5152 110.678 34.504C110.678 35.4917 110.881 36.3557 111.288 37.096C111.696 37.8373 112.233 38.4048 112.899 38.8005C113.564 39.1952 114.276 39.3925 115.031 39.3925C115.805 39.3925 116.532 39.2005 117.206 38.8144C117.882 38.4293 118.419 37.8768 118.816 37.1557C119.213 36.4347 119.413 35.5707 119.413 34.5627C119.413 33.5557 119.213 32.6907 118.816 31.9707C118.419 31.2496 117.882 30.696 117.206 30.3109C116.532 29.9259 115.805 29.7339 115.031 29.7339ZM136.228 29.7339C135.472 29.7339 134.762 29.9259 134.096 30.3109C133.431 30.696 132.894 31.2539 132.486 31.9856C132.078 32.7163 131.875 33.5749 131.875 34.5627C131.875 35.5515 132.078 36.4101 132.486 37.1408C132.894 37.8715 133.431 38.4293 134.096 38.8144C134.762 39.2005 135.472 39.3925 136.228 39.3925C137.003 39.3925 137.723 39.1952 138.389 38.8005C139.055 38.4048 139.592 37.8416 139.999 37.1109C140.407 36.3803 140.61 35.5109 140.61 34.504C140.61 33.5152 140.407 32.6619 139.999 31.9408C139.592 31.2197 139.055 30.6715 138.389 30.296C137.723 29.9205 137.003 29.7339 136.228 29.7339ZM156.441 29.7339C155.686 29.7339 154.975 29.9259 154.309 30.3109C153.643 30.696 153.108 31.2539 152.7 31.9856C152.293 32.7163 152.088 33.5749 152.088 34.5627C152.088 35.5515 152.293 36.4101 152.7 37.1408C153.108 37.8715 153.643 38.4293 154.309 38.8144C154.975 39.2005 155.686 39.3925 156.441 39.3925C157.217 39.3925 157.938 39.1952 158.603 38.8005C159.269 38.4048 159.806 37.8416 160.213 37.1109C160.62 36.3803 160.825 35.5109 160.825 34.504C160.825 33.5152 160.62 32.6619 160.213 31.9408C159.806 31.2197 159.269 30.6715 158.603 30.296C157.938 29.9205 157.217 29.7339 156.441 29.7339Z" fill="#222222"/>
<defs>
<linearGradient id="paint0_linear_1_24" x1="-1.56451" y1="-2.41778" x2="63.904" y2="62.0564" gradientUnits="userSpaceOnUse">
<stop stop-color="#D140F8"/>
<stop offset="0.365081" stop-color="#788CE9"/>
<stop offset="0.683665" stop-color="#37C2DE"/>
<stop offset="1" stop-color="#1ECCAE"/>
</linearGradient>
</defs>
</svg>
