<svg width="120" height="40" viewBox="0 0 120 40" fill="none" xmlns="http://www.w3.org/2000/svg">
<path fill-rule="evenodd" clip-rule="evenodd" d="M11.3494 0H28.59C32.5366 0 33.9678 0.411333 35.4103 1.184C36.8528 1.95733 37.9857 3.09133 38.7572 4.536C39.5287 5.98067 39.9394 7.414 39.9394 11.3667V28.6333C39.9394 32.586 39.5287 34.0187 38.7572 35.464C37.9857 36.9087 36.8528 38.0427 35.4103 38.816C33.9678 39.5887 32.5366 40 28.59 40H11.3494C7.40277 40 5.97161 39.5887 4.52913 38.816C3.08665 38.0427 1.95437 36.9087 1.18287 35.464C0.41071 34.0187 0 32.586 0 28.6333V11.3667C0 7.414 0.41071 5.98067 1.18287 4.536C1.95437 3.09133 3.08665 1.95733 4.52913 1.184C5.97161 0.411333 7.40277 0 11.3494 0Z" fill="url(#paint0_linear_1_8)"/>
<path opacity="0.9" fill-rule="evenodd" clip-rule="evenodd" d="M15.2225 10.6667V10.8833L15.0008 11.1047C13.9065 12.2247 13.0651 13.5493 12.476 15.0793C11.8476 16.7113 11.5334 18.3933 11.5334 20.1253C11.5334 21.8127 11.831 23.4413 12.4267 25.0127C13.0225 26.5833 13.8726 27.946 14.9769 29.1V29.3333H12.6644L12.4687 29.134C11.5021 28.1227 10.7446 26.856 10.1968 25.3373C9.61168 23.716 9.31946 21.9787 9.31946 20.1253C9.31946 18.2267 9.62566 16.442 10.2374 14.7713C10.8498 13.1007 11.7411 11.7327 12.9107 10.6667H15.2225ZM27.0293 10.6667L27.2456 10.87C28.3093 11.9047 29.1281 13.2053 29.7019 14.7713C30.3143 16.442 30.6205 18.2267 30.6205 20.1253C30.6205 21.9787 30.3276 23.716 29.7431 25.3373C29.158 26.958 28.3353 28.29 27.2749 29.3333H24.9631V29.1L25.1801 28.8667C26.1792 27.7633 26.9567 26.4787 27.5125 25.0127C28.1089 23.4413 28.4065 21.8127 28.4065 20.1253C28.4065 18.3933 28.0923 16.7113 27.4639 15.0793C26.8349 13.4473 25.9196 12.0487 24.7174 10.8833V10.6667H27.0293ZM17.5184 14.43V19.2087H22.4209V14.43H24.7174V26.0527H22.4209V21.1073H17.5184V26.0527H15.2225V14.43H17.5184Z" fill="white"/>
<path fill-rule="evenodd" clip-rule="evenodd" d="M85.8318 16.3057C86.7138 16.3057 87.5113 16.5217 88.2262 16.9537C88.9405 17.3857 89.5063 18.0003 89.9223 18.7963C90.3383 19.5923 90.546 20.515 90.546 21.565C90.546 22.6137 90.3383 23.543 89.9223 24.3517C89.5063 25.161 88.9405 25.787 88.2262 26.2317C87.5113 26.6757 86.7138 26.8983 85.8318 26.8983C85.0737 26.8983 84.406 26.7443 83.8282 26.435C83.3157 26.161 82.8876 25.823 82.5455 25.4217L82.4217 25.2683V31.6203H79.813V16.4723H82.4217V17.9537L82.5382 17.8003C82.8617 17.3983 83.2857 17.0577 83.8102 16.7777C84.4007 16.463 85.0737 16.3057 85.8318 16.3057ZM98.4653 16.3057C99.3473 16.3057 100.145 16.5217 100.86 16.9537C101.574 17.3857 102.139 18.0003 102.555 18.7963C102.971 19.5923 103.18 20.515 103.18 21.565C103.18 22.6137 102.971 23.543 102.555 24.3517C102.139 25.161 101.574 25.787 100.86 26.2317C100.145 26.6757 99.3473 26.8983 98.4653 26.8983C97.7078 26.8983 97.0402 26.7443 96.4624 26.435C95.9485 26.161 95.5211 25.823 95.1797 25.4217L95.0552 25.2683V31.6203H92.4471V16.4723H95.0552V17.9537L95.1717 17.8003C95.4952 17.3983 95.9185 17.0577 96.4431 16.7777C97.0335 16.463 97.7078 16.3057 98.4653 16.3057ZM111.858 16.4723L114.522 23.639L117.224 16.4723H120L113.609 31.5837H110.833L113.069 26.4723L108.932 16.4723H111.858ZM68.2206 9.62033V9.861L67.9683 10.107C66.7255 11.353 65.7689 12.8263 65.0993 14.5277C64.385 16.3423 64.0276 18.213 64.0276 20.139C64.0276 22.0157 64.3664 23.8277 65.044 25.5743C65.7203 27.321 66.6862 28.8363 67.941 30.1203V30.3797H65.3136L65.1033 30.171C63.9996 29.0437 63.1343 27.6317 62.5092 25.935C61.8449 24.133 61.5127 22.2003 61.5127 20.139C61.5127 18.0277 61.8602 16.043 62.5558 14.185C63.2514 12.327 64.2639 10.8057 65.5932 9.62033H68.2206ZM104.095 9.62033L104.326 9.833C105.542 10.9857 106.478 12.4363 107.133 14.185C107.828 16.043 108.176 18.0277 108.176 20.139C108.176 22.2003 107.843 24.133 107.179 25.935C106.514 27.7377 105.58 29.2197 104.374 30.3797H101.747V30.1203L101.979 29.877C103.122 28.6457 104.01 27.2117 104.645 25.5743C105.322 23.8277 105.66 22.0157 105.66 20.139C105.66 18.213 105.304 16.3423 104.589 14.5277C103.874 12.713 102.835 11.1577 101.467 9.861V9.62033H104.095ZM71.2233 16.3057C71.9935 16.3057 72.6671 16.4597 73.2449 16.7683C73.7582 17.043 74.1808 17.3803 74.513 17.7817L74.6328 17.935V16.4723H77.2602V26.7317H74.6328V25.2317L74.5163 25.389C74.1935 25.8003 73.7695 26.1457 73.2449 26.4257C72.6545 26.741 71.9749 26.8983 71.204 26.8983C70.3353 26.8983 69.5425 26.6757 68.829 26.2317C68.1147 25.787 67.5489 25.161 67.1329 24.3517C66.7168 23.543 66.5092 22.6137 66.5092 21.565C66.5092 20.5277 66.7168 19.6083 67.1329 18.8057C67.5489 18.003 68.1147 17.3857 68.829 16.9537C69.5425 16.5217 70.3413 16.3057 71.2233 16.3057ZM51.3841 13.8057V19.1203H56.955V13.8057H59.5637V26.7317H56.955V21.2317H51.3841V26.7317H48.7754V13.8057H51.3841ZM71.8943 18.5837C71.4097 18.5837 70.9624 18.7003 70.5524 18.935C70.1423 19.1697 69.8101 19.5123 69.5552 19.963C69.3009 20.4137 69.1738 20.947 69.1738 21.565C69.1738 22.1823 69.3009 22.7223 69.5552 23.185C69.8101 23.6483 70.1456 24.003 70.5617 24.2503C70.9777 24.497 71.4224 24.6203 71.8943 24.6203C72.3783 24.6203 72.8322 24.5003 73.2536 24.259C73.6763 24.0183 74.0118 23.673 74.2601 23.2223C74.5084 22.7717 74.6328 22.2317 74.6328 21.6017C74.6328 20.9723 74.5084 20.4317 74.2601 19.9817C74.0118 19.531 73.6763 19.185 73.2536 18.9443C72.8322 18.7037 72.3783 18.5837 71.8943 18.5837ZM85.1422 18.5837C84.6703 18.5837 84.2263 18.7037 83.8102 18.9443C83.3942 19.185 83.0587 19.5337 82.8038 19.991C82.5488 20.4477 82.4217 20.9843 82.4217 21.6017C82.4217 22.2197 82.5488 22.7563 82.8038 23.213C83.0587 23.6697 83.3942 24.0183 83.8102 24.259C84.2263 24.5003 84.6703 24.6203 85.1422 24.6203C85.6268 24.6203 86.0768 24.497 86.4928 24.2503C86.9095 24.003 87.245 23.651 87.4993 23.1943C87.7543 22.7377 87.8814 22.1943 87.8814 21.565C87.8814 20.947 87.7543 20.4137 87.4993 19.963C87.245 19.5123 86.9095 19.1697 86.4928 18.935C86.0768 18.7003 85.6268 18.5837 85.1422 18.5837ZM97.7757 18.5837C97.3038 18.5837 96.8591 18.7037 96.4431 18.9443C96.027 19.185 95.6922 19.5337 95.4373 19.991C95.183 20.4477 95.0552 20.9843 95.0552 21.6017C95.0552 22.2197 95.183 22.7563 95.4373 23.213C95.6922 23.6697 96.027 24.0183 96.4431 24.259C96.8591 24.5003 97.3038 24.6203 97.7757 24.6203C98.2603 24.6203 98.711 24.497 99.127 24.2503C99.543 24.003 99.8785 23.651 100.133 23.1943C100.388 22.7377 100.516 22.1943 100.516 21.565C100.516 20.947 100.388 20.4137 100.133 19.963C99.8785 19.5123 99.543 19.1697 99.127 18.935C98.711 18.7003 98.2603 18.5837 97.7757 18.5837Z" fill="#222222"/>
<defs>
<linearGradient id="paint0_linear_1_8" x1="-0.977817" y1="-1.51111" x2="39.94" y2="38.7852" gradientUnits="userSpaceOnUse">
<stop stop-color="#D140F8"/>
<stop offset="0.365081" stop-color="#788CE9"/>
<stop offset="0.683665" stop-color="#37C2DE"/>
<stop offset="1" stop-color="#1ECCAE"/>
</linearGradient>
</defs>
</svg>
